<svg width="1024" height="1024" viewBox="0 0 1024 1024" fill="none" xmlns="http://www.w3.org/2000/svg">
<rect width="1024" height="1024" fill="none"/>
<g clip-path="url(#clip0_0_1)">
<circle cx="512" cy="512" r="150" fill="url(#paint0_linear_0_1)"/>
<mask id="mask0_0_1" style="mask-type:alpha" maskUnits="userSpaceOnUse" x="0" y="0" width="1024" height="1024">
<path d="M1024 1024H0V0H1024V1024ZM511.5 341C417.335 341 341 417.335 341 511.5C341 605.665 417.335 682 511.5 682C605.665 682 682 605.665 682 511.5C682 417.335 605.665 341 511.5 341Z" fill="#D9D9D9"/>
</mask>
<g mask="url(#mask0_0_1)">
<rect x="137.972" y="259.47" width="899" height="63" transform="rotate(30 137.972 259.47)" fill="url(#paint1_linear_0_1)"/>
<rect x="106.472" y="708.97" width="899" height="63" transform="rotate(-30 106.472 708.97)" fill="url(#paint2_linear_0_1)"/>
<rect x="62" y="480" width="899" height="63" fill="url(#paint3_linear_0_1)"/>
<circle cx="938" cy="757" r="80" fill="url(#paint4_linear_0_1)"/>
<circle cx="938" cy="267" r="80" fill="url(#paint5_linear_0_1)"/>
<circle cx="938" cy="512" r="80" fill="url(#paint6_linear_0_1)"/>
<circle cx="86" cy="757" r="80" fill="url(#paint7_linear_0_1)"/>
<circle cx="86" cy="267" r="80" fill="url(#paint8_linear_0_1)"/>
<circle cx="86" cy="512" r="80" fill="url(#paint9_linear_0_1)"/>
</g>
</g>
<defs>
<linearGradient id="paint0_linear_0_1" x1="512" y1="362" x2="512" y2="662" gradientUnits="userSpaceOnUse">
<stop stop-color="#0171FE"/>
<stop offset="1" stop-color="#014498"/>
</linearGradient>
<linearGradient id="paint1_linear_0_1" x1="587.472" y1="259.47" x2="587.472" y2="322.47" gradientUnits="userSpaceOnUse">
<stop stop-color="#0171FE"/>
<stop offset="1" stop-color="#014498"/>
</linearGradient>
<linearGradient id="paint2_linear_0_1" x1="555.972" y1="708.97" x2="555.972" y2="771.97" gradientUnits="userSpaceOnUse">
<stop stop-color="#0171FE"/>
<stop offset="1" stop-color="#014498"/>
</linearGradient>
<linearGradient id="paint3_linear_0_1" x1="511.5" y1="480" x2="511.5" y2="543" gradientUnits="userSpaceOnUse">
<stop stop-color="#0171FE"/>
<stop offset="1" stop-color="#014498"/>
</linearGradient>
<linearGradient id="paint4_linear_0_1" x1="938" y1="677" x2="938" y2="837" gradientUnits="userSpaceOnUse">
<stop stop-color="#0171FE"/>
<stop offset="1" stop-color="#014498"/>
</linearGradient>
<linearGradient id="paint5_linear_0_1" x1="938" y1="187" x2="938" y2="347" gradientUnits="userSpaceOnUse">
<stop stop-color="#0171FE"/>
<stop offset="1" stop-color="#014498"/>
</linearGradient>
<linearGradient id="paint6_linear_0_1" x1="938" y1="432" x2="938" y2="592" gradientUnits="userSpaceOnUse">
<stop stop-color="#0171FE"/>
<stop offset="1" stop-color="#014498"/>
</linearGradient>
<linearGradient id="paint7_linear_0_1" x1="86" y1="677" x2="86" y2="837" gradientUnits="userSpaceOnUse">
<stop stop-color="#0171FE"/>
<stop offset="1" stop-color="#014498"/>
</linearGradient>
<linearGradient id="paint8_linear_0_1" x1="86" y1="187" x2="86" y2="347" gradientUnits="userSpaceOnUse">
<stop stop-color="#0171FE"/>
<stop offset="1" stop-color="#014498"/>
</linearGradient>
<linearGradient id="paint9_linear_0_1" x1="86" y1="432" x2="86" y2="592" gradientUnits="userSpaceOnUse">
<stop stop-color="#0171FE"/>
<stop offset="1" stop-color="#014498"/>
</linearGradient>
<clipPath id="clip0_0_1">
<rect width="1024" height="1024" fill="white"/>
</clipPath>
</defs>
</svg>
