<svg width="1024" height="1024" viewBox="0 0 1024 1024" fill="none" xmlns="http://www.w3.org/2000/svg">
<rect width="1024" height="1024" fill="none"/>
<g transform="translate(92.16, 92.16) scale(0.82)">
<g clip-path="url(#clip0_0_1)">
<circle cx="512" cy="512" r="150" fill="url(#paint0_linear_0_1)"/>
<mask id="mask0_0_1" style="mask-type:alpha" maskUnits="userSpaceOnUse" x="0" y="0" width="1024" height="1024">
<path d="M1024 1024H0V0H1024V1024ZM511.5 341C417.335 341 341 417.335 341 511.5C341 605.665 417.335 682 511.5 682C605.665 682 682 605.665 682 511.5C682 417.335 605.665 341 511.5 341Z" fill="#D9D9D9"/>
</mask>
<g mask="url(#mask0_0_1)">
<rect x="137.972" y="259.47" width="899" height="63" transform="rotate(30 137.972 259.47)" fill="url(#paint1_linear_0_1)"/>
<rect x="106.472" y="708.97" width="899" height="63" transform="rotate(-30 106.472 708.97)" fill="url(#paint2_linear_0_1)"/>
<rect x="62" y="480" width="899" height="63" fill="url(#paint3_linear_0_1)"/>
<circle cx="938" cy="757" r="80" fill="url(#paint4_linear_0_1)"/>
<circle cx="938" cy="267" r="80" fill="url(#paint5_linear_0_1)"/>
<circle cx="938" cy="512" r="80" fill="url(#paint6_linear_0_1)"/>
<circle cx="86" cy="757" r="80" fill="url(#paint7_linear_0_1)"/>
<circle cx="86" cy="267" r="80" fill="url(#paint8_linear_0_1)"/>
<circle cx="86" cy="512" r="80" fill="url(#paint9_linear_0_1)"/>
<path d="M681.175 11.217C683.48 12.2335 697.545 25.9155 700.63 28.7265L781.085 102.914C790.895 111.919 804.115 125.613 814.475 133.562C807.715 140.502 798.075 148.692 790.79 155.368L744.495 197.897C728.36 212.83 712.555 228.43 696.145 243.094C691.115 247.586 686.385 252.66 681.225 256.914C680.57 236.31 681.585 215.233 681.12 194.581C680.965 187.603 681.015 180.143 681.295 173.193C671.545 173.954 653.57 173.413 643.385 173.412L569.815 173.397L340.467 173.387L340.495 250.621L340.476 257.555C330.001 246.174 310.329 229.146 298.472 218.344L243.328 167.336C232.366 157.132 219.526 145.702 209 135.235C218.111 125.667 231.713 113.369 241.623 104.043L311.844 38.27C320.67 29.863 332.57 19.751 340.484 11L340.514 91.345C376.459 90.6535 415.262 91.378 451.431 91.383L681.335 91.3445C680.925 80.2585 681.235 68.2665 681.25 57.072L681.175 11.217Z" fill="url(#paint10_linear_0_1)"/>
<path d="M681.175 766.217C683.48 767.233 697.545 780.916 700.63 783.727L781.085 857.914C790.895 866.919 804.115 880.613 814.475 888.562C807.715 895.502 798.075 903.692 790.79 910.368L744.495 952.897C728.36 967.83 712.555 983.43 696.145 998.094C691.115 1002.59 686.385 1007.66 681.225 1011.91C680.57 991.31 681.585 970.233 681.12 949.581C680.965 942.603 681.015 935.143 681.295 928.193C671.545 928.954 653.57 928.413 643.385 928.412L569.815 928.397L340.467 928.387L340.495 1005.62L340.476 1012.55C330.001 1001.17 310.329 984.146 298.472 973.344L243.328 922.336C232.366 912.132 219.526 900.702 209 890.235C218.111 880.667 231.713 868.369 241.623 859.043L311.844 793.27C320.67 784.863 332.57 774.751 340.484 766L340.514 846.345C376.459 845.653 415.262 846.378 451.431 846.383L681.335 846.345C680.925 835.259 681.235 823.266 681.25 812.072L681.175 766.217Z" fill="url(#paint11_linear_0_1)"/>
</g>
</g>
</g>
<defs>
<linearGradient id="paint0_linear_0_1" x1="512" y1="362" x2="512" y2="662" gradientUnits="userSpaceOnUse">
<stop stop-color="#4DA6FF"/>
<stop offset="1" stop-color="#1E88E5"/>
</linearGradient>
<linearGradient id="paint1_linear_0_1" x1="587.472" y1="259.47" x2="587.472" y2="322.47" gradientUnits="userSpaceOnUse">
<stop stop-color="#4DA6FF"/>
<stop offset="1" stop-color="#1E88E5"/>
</linearGradient>
<linearGradient id="paint2_linear_0_1" x1="555.972" y1="708.97" x2="555.972" y2="771.97" gradientUnits="userSpaceOnUse">
<stop stop-color="#4DA6FF"/>
<stop offset="1" stop-color="#1E88E5"/>
</linearGradient>
<linearGradient id="paint3_linear_0_1" x1="511.5" y1="480" x2="511.5" y2="543" gradientUnits="userSpaceOnUse">
<stop stop-color="#4DA6FF"/>
<stop offset="1" stop-color="#1E88E5"/>
</linearGradient>
<linearGradient id="paint4_linear_0_1" x1="938" y1="677" x2="938" y2="837" gradientUnits="userSpaceOnUse">
<stop stop-color="#4DA6FF"/>
<stop offset="1" stop-color="#1E88E5"/>
</linearGradient>
<linearGradient id="paint5_linear_0_1" x1="938" y1="187" x2="938" y2="347" gradientUnits="userSpaceOnUse">
<stop stop-color="#4DA6FF"/>
<stop offset="1" stop-color="#1E88E5"/>
</linearGradient>
<linearGradient id="paint6_linear_0_1" x1="938" y1="432" x2="938" y2="592" gradientUnits="userSpaceOnUse">
<stop stop-color="#4DA6FF"/>
<stop offset="1" stop-color="#1E88E5"/>
</linearGradient>
<linearGradient id="paint7_linear_0_1" x1="86" y1="677" x2="86" y2="837" gradientUnits="userSpaceOnUse">
<stop stop-color="#4DA6FF"/>
<stop offset="1" stop-color="#1E88E5"/>
</linearGradient>
<linearGradient id="paint8_linear_0_1" x1="86" y1="187" x2="86" y2="347" gradientUnits="userSpaceOnUse">
<stop stop-color="#4DA6FF"/>
<stop offset="1" stop-color="#1E88E5"/>
</linearGradient>
<linearGradient id="paint9_linear_0_1" x1="86" y1="432" x2="86" y2="592" gradientUnits="userSpaceOnUse">
<stop stop-color="#4DA6FF"/>
<stop offset="1" stop-color="#1E88E5"/>
</linearGradient>
<linearGradient id="paint10_linear_0_1" x1="511.737" y1="11" x2="511.737" y2="257.555" gradientUnits="userSpaceOnUse">
<stop stop-color="#4DA6FF"/>
<stop offset="1" stop-color="#1E88E5"/>
</linearGradient>
<linearGradient id="paint11_linear_0_1" x1="511.737" y1="766" x2="511.737" y2="1012.55" gradientUnits="userSpaceOnUse">
<stop stop-color="#4DA6FF"/>
<stop offset="1" stop-color="#1E88E5"/>
</linearGradient>
<clipPath id="clip0_0_1">
<rect width="1024" height="1024" fill="white"/>
</clipPath>
</defs>
</svg>
